<svg id="_x31__x2C_5" height="512" viewBox="0 0 24 24" width="512" xmlns="http://www.w3.org/2000/svg"><path d="m15.25 23.25h-6.5c-1.105 0-2-.895-2-2v-11.232c0-.53.211-1.039.586-1.414l1.829-1.829c.374-.375.585-.883.585-1.413l.001-1.362h4.499v1.361c0 .53.211 1.039.586 1.414l1.828 1.828c.203.49.383.924.586 1.414v11.233c0 1.105-.895 2-2 2z" fill="#cfd8dc"/><path d="m14.25 3.75h-4.5c-.552 0-1-.448-1-1v-1c0-.552.448-1 1-1h4.5c.552 0 1 .448 1 1v1c0 .552-.448 1-1 1z" fill="#90a4ae"/><path d="m15.25 24h-6.5c-1.517 0-2.75-1.233-2.75-2.75v-10.593c0-1.269.494-2.461 1.391-3.358l1.243-1.243c.236-.237.366-.551.366-.884v-1.172c0-.414.336-.75.75-.75.414 0 .75.336.75.75v1.172c0 .734-.286 1.424-.805 1.943l-1.243 1.244c-.605.605-.952 1.442-.952 2.298v10.593c0 .689.561 1.25 1.25 1.25h6.5c.689 0 1.25-.561 1.25-1.25v-10.593c0-.855-.347-1.693-.952-2.298l-1.243-1.243c-.519-.518-.805-1.209-.805-1.945v-1.171c0-.414.336-.75.75-.75s.75.336.75.75v1.171c0 .334.13.648.366.884l1.243 1.243c.897.897 1.391 2.09 1.391 3.359v10.593c0 1.517-1.233 2.75-2.75 2.75z"/><path d="m14.25 4.5h-4.5c-.965 0-1.75-.785-1.75-1.75v-1c0-.965.785-1.75 1.75-1.75h4.5c.965 0 1.75.785 1.75 1.75v1c0 .965-.785 1.75-1.75 1.75zm-4.5-3c-.138 0-.25.112-.25.25v1c0 .138.112.25.25.25h4.5c.138 0 .25-.112.25-.25v-1c0-.138-.112-.25-.25-.25z"/></svg>